<svg width="24" height="24" viewBox="0 0 24 24" fill="none" xmlns="http://www.w3.org/2000/svg">
<mask id="mask0_152_189" style="mask-type:alpha" maskUnits="userSpaceOnUse" x="0" y="0" width="24" height="24">
<rect x="24" width="24" height="24" transform="rotate(90 24 0)" fill="#D9D9D9"/>
</mask>
<g mask="url(#mask0_152_189)">
<path d="M12 9.225L4.65001 16.575C4.40001 16.825 4.10835 16.9458 3.77501 16.9375C3.44168 16.9292 3.15001 16.8 2.90001 16.55C2.65001 16.3 2.52501 16.0083 2.52501 15.675C2.52501 15.3417 2.65001 15.05 2.90001 14.8L10.575 7.1C10.775 6.9 11 6.75 11.25 6.65C11.5 6.55 11.75 6.5 12 6.5C12.25 6.5 12.5 6.55 12.75 6.65C13 6.75 13.225 6.9 13.425 7.1L21.125 14.8C21.375 15.05 21.4958 15.3458 21.4875 15.6875C21.4792 16.0292 21.35 16.325 21.1 16.575C20.85 16.825 20.5583 16.95 20.225 16.95C19.8917 16.95 19.6 16.825 19.35 16.575L12 9.225Z" fill="white"/>
</g>
</svg>
