<svg width="70" height="70" viewBox="0 0 70 70" fill="none" xmlns="http://www.w3.org/2000/svg">
<circle cx="35" cy="35" r="35" fill="#08599C"/>
<path d="M46.9584 31.4584C46.9584 25.2251 41.9488 20.1604 35.7475 20.0252L35.6764 20.0183C35.6168 20.016 35.5595 20 35.5 20C35.4404 20 35.3831 20.016 35.3235 20.0183L35.28 20.0229C29.0672 20.1421 24.0415 25.2159 24.0415 31.4584C24.0415 37.7766 29.1818 42.9169 35.5 42.9169H35.5022C38.5397 42.9127 41.4515 41.704 43.5991 39.556C45.7467 37.4079 46.9548 34.4959 46.9584 31.4584ZM35.5 38.5581C34.6749 37.2931 33.6758 35.0427 33.6758 31.4584C33.6758 27.8765 34.6727 25.6238 35.4977 24.3588C36.325 25.6238 37.3218 27.8742 37.3218 31.4584C37.3218 35.0449 36.3227 37.2977 35.5 38.5581ZM27.479 31.4584C27.479 28.477 29.1336 25.9011 31.5537 24.5192C30.8226 26.2334 30.2405 28.5159 30.2405 31.4584C30.2405 34.401 30.8226 36.6835 31.5537 38.3977C29.1336 37.0158 27.479 34.4399 27.479 31.4584ZM39.4462 38.3977C40.1773 36.6835 40.7594 34.401 40.7594 31.4584C40.7594 28.5159 40.1773 26.2334 39.4462 24.5192C41.8663 25.9011 43.5209 28.477 43.5209 31.4584C43.5209 34.4399 41.8663 37.0158 39.4462 38.3977Z" fill="#0B2C4D"/>
<path d="M32.3283 45.424C29.5023 44.7972 26.9402 43.3096 24.9949 41.166C23.3742 39.4517 22.2233 37.3481 21.6536 35.0587C21.5619 34.6854 21.3477 34.3537 21.0453 34.1165C20.7428 33.8793 20.3696 33.7503 19.9853 33.7501H9.71849C9.46086 33.7508 9.20667 33.8093 8.97462 33.9213C8.74258 34.0332 8.53858 34.1957 8.37764 34.3969C8.2167 34.5981 8.10291 34.8328 8.04465 35.0837C7.98638 35.3347 7.98513 35.5955 8.04097 35.847C8.06847 35.9639 8.5566 38.0883 9.60391 40.6252H20.2832C20.9019 41.6565 21.6353 42.619 22.4832 43.5127C22.6665 43.6961 22.827 43.8794 23.0103 44.0627H11.3387C14.1415 48.7286 17.2673 49.792 19.4582 49.792C24.7382 49.792 30.0366 49.1251 32.1541 48.8249C32.5835 48.7891 32.9836 48.5928 33.2746 48.275C33.5655 47.9573 33.726 47.5415 33.7239 47.1107C33.7219 46.7116 33.5817 46.3256 33.3273 46.0181C33.0729 45.7107 32.7199 45.5007 32.3283 45.424ZM38.6717 45.424C41.4977 44.7972 44.0598 43.3096 46.0051 41.166C47.6258 39.4517 48.7767 37.3481 49.3464 35.0587C49.4381 34.6854 49.6523 34.3537 49.9547 34.1165C50.2572 33.8793 50.6304 33.7503 51.0147 33.7501H61.2815C61.5391 33.7508 61.7933 33.8093 62.0254 33.9213C62.2574 34.0332 62.4614 34.1957 62.6224 34.3969C62.7833 34.5981 62.8971 34.8328 62.9554 35.0837C63.0136 35.3347 63.0149 35.5955 62.959 35.847C62.9315 35.9639 62.4434 38.0883 61.3961 40.6252H50.7168C50.0981 41.6565 49.3647 42.619 48.5168 43.5127C48.3335 43.6961 48.173 43.8794 47.9897 44.0627H59.6613C56.8585 48.7286 53.7327 49.792 51.5418 49.792C46.2618 49.792 40.9634 49.1251 38.8459 48.8249C38.4165 48.7891 38.0164 48.5928 37.7254 48.275C37.4345 47.9573 37.274 47.5415 37.2761 47.1107C37.2761 46.2765 37.8811 45.5798 38.6717 45.424Z" fill="#0B2C4D"/>
</svg>
