<svg width="70" height="70" viewBox="0 0 70 70" fill="none" xmlns="http://www.w3.org/2000/svg">
<circle cx="35" cy="35" r="35" fill="black"/>
<path d="M46.9584 31.4584C46.9584 25.2251 41.9488 20.1604 35.7475 20.0252L35.6764 20.0183C35.6168 20.016 35.5595 20 35.5 20C35.4404 20 35.3831 20.016 35.3235 20.0183L35.28 20.0229C29.0672 20.1421 24.0415 25.2159 24.0415 31.4584C24.0415 37.7766 29.1818 42.9169 35.5 42.9169H35.5022C38.5397 42.9127 41.4515 41.704 43.5991 39.556C45.7467 37.4079 46.9548 34.4959 46.9584 31.4584ZM35.5 38.5581C34.6749 37.2931 33.6758 35.0427 33.6758 31.4584C33.6758 27.8765 34.6727 25.6238 35.4977 24.3588C36.325 25.6238 37.3218 27.8742 37.3218 31.4584C37.3218 35.0449 36.3227 37.2977 35.5 38.5581ZM27.479 31.4584C27.479 28.477 29.1336 25.9011 31.5537 24.5192C30.8226 26.2334 30.2405 28.5159 30.2405 31.4584C30.2405 34.401 30.8226 36.6835 31.5537 38.3977C29.1336 37.0158 27.479 34.4399 27.479 31.4584ZM39.4462 38.3977C40.1773 36.6835 40.7594 34.401 40.7594 31.4584C40.7594 28.5159 40.1773 26.2334 39.4462 24.5192C41.8663 25.9011 43.5209 28.477 43.5209 31.4584C43.5209 34.4399 41.8663 37.0158 39.4462 38.3977Z" fill="white"/>
<path d="M32.3283 45.4239C29.5023 44.7971 26.9402 43.3095 24.9949 41.1659C23.3742 39.4515 22.2233 37.3479 21.6536 35.0586C21.5619 34.6853 21.3477 34.3536 21.0453 34.1164C20.7428 33.8792 20.3696 33.7502 19.9853 33.75H9.71849C9.46086 33.7507 9.20667 33.8092 8.97462 33.9211C8.74258 34.0331 8.53858 34.1956 8.37764 34.3968C8.2167 34.598 8.10291 34.8327 8.04465 35.0836C7.98638 35.3346 7.98513 35.5954 8.04097 35.8469C8.06847 35.9638 8.5566 38.0882 9.60391 40.6251H20.2832C20.9019 41.6563 21.6353 42.6188 22.4832 43.5126C22.6665 43.6959 22.827 43.8793 23.0103 44.0626H11.3387C14.1415 48.7285 17.2673 49.7918 19.4582 49.7918C24.7382 49.7918 30.0366 49.1249 32.1541 48.8247C32.5835 48.789 32.9836 48.5926 33.2746 48.2749C33.5655 47.9572 33.726 47.5414 33.7239 47.1106C33.7219 46.7115 33.5817 46.3254 33.3273 46.018C33.0729 45.7105 32.7199 45.5006 32.3283 45.4239ZM38.6717 45.4239C41.4977 44.7971 44.0598 43.3095 46.0051 41.1659C47.6258 39.4515 48.7767 37.3479 49.3464 35.0586C49.4381 34.6853 49.6523 34.3536 49.9547 34.1164C50.2572 33.8792 50.6304 33.7502 51.0147 33.75H61.2815C61.5391 33.7507 61.7933 33.8092 62.0254 33.9211C62.2574 34.0331 62.4614 34.1956 62.6224 34.3968C62.7833 34.598 62.8971 34.8327 62.9554 35.0836C63.0136 35.3346 63.0149 35.5954 62.959 35.8469C62.9315 35.9638 62.4434 38.0882 61.3961 40.6251H50.7168C50.0981 41.6563 49.3647 42.6188 48.5168 43.5126C48.3335 43.6959 48.173 43.8793 47.9897 44.0626H59.6613C56.8585 48.7285 53.7327 49.7918 51.5418 49.7918C46.2618 49.7918 40.9634 49.1249 38.8459 48.8247C38.4165 48.789 38.0164 48.5926 37.7254 48.2749C37.4345 47.9572 37.274 47.5414 37.2761 47.1106C37.2761 46.2764 37.8811 45.5797 38.6717 45.4239Z" fill="white"/>
</svg>
