<svg width="70" height="70" viewBox="0 0 70 70" fill="none" xmlns="http://www.w3.org/2000/svg">
<circle cx="35" cy="35" r="35" fill="#CD8500"/>
<path d="M46.9584 31.4584C46.9584 25.2251 41.9488 20.1604 35.7475 20.0252L35.6764 20.0183C35.6168 20.016 35.5595 20 35.5 20C35.4404 20 35.3831 20.016 35.3235 20.0183L35.28 20.0229C29.0672 20.1421 24.0415 25.2159 24.0415 31.4584C24.0415 37.7766 29.1818 42.9169 35.5 42.9169H35.5022C38.5397 42.9127 41.4515 41.704 43.5991 39.556C45.7467 37.4079 46.9548 34.4959 46.9584 31.4584ZM35.5 38.5581C34.6749 37.2931 33.6758 35.0427 33.6758 31.4584C33.6758 27.8765 34.6727 25.6238 35.4977 24.3588C36.325 25.6238 37.3218 27.8742 37.3218 31.4584C37.3218 35.0449 36.3227 37.2977 35.5 38.5581ZM27.479 31.4584C27.479 28.477 29.1336 25.9011 31.5537 24.5192C30.8226 26.2334 30.2405 28.5159 30.2405 31.4584C30.2405 34.401 30.8226 36.6835 31.5537 38.3977C29.1336 37.0158 27.479 34.4399 27.479 31.4584ZM39.4462 38.3977C40.1773 36.6835 40.7594 34.401 40.7594 31.4584C40.7594 28.5159 40.1773 26.2334 39.4462 24.5192C41.8663 25.9011 43.5209 28.477 43.5209 31.4584C43.5209 34.4399 41.8663 37.0158 39.4462 38.3977Z" fill="#665100"/>
<path d="M32.3283 46.6739C29.5023 46.0471 26.9402 44.5595 24.9949 42.4159C23.3742 40.7015 22.2233 38.5979 21.6536 36.3086C21.5619 35.9353 21.3477 35.6036 21.0453 35.3664C20.7428 35.1292 20.3696 35.0002 19.9853 35H9.71849C9.46086 35.0007 9.20667 35.0592 8.97462 35.1711C8.74258 35.2831 8.53858 35.4456 8.37764 35.6468C8.2167 35.848 8.10291 36.0827 8.04465 36.3336C7.98638 36.5846 7.98513 36.8454 8.04097 37.0969C8.06847 37.2138 8.5566 39.3382 9.60391 41.8751H20.2832C20.9019 42.9063 21.6353 43.8688 22.4832 44.7626C22.6665 44.9459 22.827 45.1293 23.0103 45.3126H11.3387C14.1415 49.9785 17.2673 51.0418 19.4582 51.0418C24.7382 51.0418 30.0366 50.3749 32.1541 50.0747C32.5835 50.039 32.9836 49.8426 33.2746 49.5249C33.5655 49.2072 33.726 48.7914 33.7239 48.3605C33.7219 47.9615 33.5817 47.5754 33.3273 47.268C33.0729 46.9605 32.7199 46.7506 32.3283 46.6739ZM38.6717 46.6739C41.4977 46.0471 44.0598 44.5595 46.0051 42.4159C47.6258 40.7015 48.7767 38.5979 49.3464 36.3086C49.4381 35.9353 49.6523 35.6036 49.9547 35.3664C50.2572 35.1292 50.6304 35.0002 51.0147 35H61.2815C61.5391 35.0007 61.7933 35.0592 62.0254 35.1711C62.2574 35.2831 62.4614 35.4456 62.6224 35.6468C62.7833 35.848 62.8971 36.0827 62.9554 36.3336C63.0136 36.5846 63.0149 36.8454 62.959 37.0969C62.9315 37.2138 62.4434 39.3382 61.3961 41.8751H50.7168C50.0981 42.9063 49.3647 43.8688 48.5168 44.7626C48.3335 44.9459 48.173 45.1293 47.9897 45.3126H59.6613C56.8585 49.9785 53.7327 51.0418 51.5418 51.0418C46.2618 51.0418 40.9634 50.3749 38.8459 50.0747C38.4165 50.039 38.0164 49.8426 37.7254 49.5249C37.4345 49.2072 37.274 48.7914 37.2761 48.3605C37.2761 47.5264 37.8811 46.8297 38.6717 46.6739Z" fill="#665100"/>
</svg>
